# xmcd CD database file
#
# Track frame offsets:
#	150
#	27432
#	50317
#	71030
#	90452
#	110012
#	128992
#	136800
#	158417
#	185230
#	208015
#	239690
#	266840
#	292182
#	320717
#
# Disc length: 4674 seconds
#
# Revision: 3
# Processed by: cddbd v1.5.2PL0 Copyright (c) Steve Scherf et al.
# Submitted via: CDex 1.50beta9
#
DISCID=ec12400f
DTITLE=Walter Trout - Deep Trout-The Early Years Of Walter Trout
DYEAR=2005
DGENRE=Blues
TTITLE0=Put it right back
TTITLE1=The love that we once knew
TTITLE2=How much do you want
TTITLE3=Sweet as a flower
TTITLE4=Victor the cajun
TTITLE5=Kill the monkey
TTITLE6=Earrings on the table
TTITLE7=Fast moving traffic
TTITLE8=Love in vain
TTITLE9=Motivation of love
TTITLE10=If you just try
TTITLE11=Tribute to Muddy Waters
TTITLE12=Life in the jungle (acoustic)
TTITLE13=Big chain (from Freedo album)
TTITLE14=So sad to be lonely
EXTD=YEAR: 2005
EXTT0=
EXTT1=
EXTT2=
EXTT3=
EXTT4=
EXTT5=
EXTT6=
EXTT7=
EXTT8=
EXTT9=
EXTT10=
EXTT11=
EXTT12=
EXTT13=
EXTT14=
PLAYORDER=
